<svg width="31" height="31" viewBox="0 0 31 31" fill="none" xmlns="http://www.w3.org/2000/svg">
<path d="M28.9333 13.95C29.0704 13.95 29.2018 13.8956 29.2987 13.7987C29.3956 13.7018 29.45 13.5704 29.45 13.4333V10.261C29.937 10.1352 30.3615 9.83618 30.6438 9.41987C30.9261 9.00355 31.0469 8.49856 30.9835 7.99955C30.9201 7.50055 30.6769 7.04179 30.2995 6.70927C29.9221 6.37675 29.4363 6.1933 28.9333 6.1933C28.4303 6.1933 27.9446 6.37675 27.5671 6.70927C27.1897 7.04179 26.9465 7.50055 26.8831 7.99955C26.8198 8.49856 26.9405 9.00355 27.2229 9.41987C27.5052 9.83618 27.9296 10.1352 28.4167 10.261V12.9167H19.6333V11.3667H18.0833V2.58334H20.739C20.8648 3.07038 21.1638 3.49484 21.5801 3.77715C21.9965 4.05946 22.5014 4.18025 23.0005 4.11687C23.4995 4.05348 23.9582 3.81029 24.2907 3.43286C24.6233 3.05543 24.8067 2.56968 24.8067 2.06667C24.8067 1.56366 24.6233 1.07791 24.2907 0.700485C23.9582 0.323057 23.4995 0.0798588 23.0005 0.016477C22.5014 -0.0469048 21.9965 0.073881 21.5801 0.356194C21.1638 0.638507 20.8648 1.06296 20.739 1.55H17.5667C17.4296 1.55 17.2982 1.60444 17.2013 1.70133C17.1044 1.79823 17.05 1.92964 17.05 2.06667V11.3667H16.0167V6.2H14.9833V11.3667H13.95V2.06667C13.95 1.92964 13.8956 1.79823 13.7987 1.70133C13.7018 1.60444 13.5704 1.55 13.4333 1.55H10.261C10.1352 1.06296 9.83618 0.638507 9.41987 0.356194C9.00355 0.073881 8.49856 -0.0469048 7.99955 0.016477C7.50055 0.0798588 7.04179 0.323057 6.70927 0.700485C6.37675 1.07791 6.1933 1.56366 6.1933 2.06667C6.1933 2.56968 6.37675 3.05543 6.70927 3.43286C7.04179 3.81029 7.50055 4.05348 7.99955 4.11687C8.49856 4.18025 9.00355 4.05946 9.41987 3.77715C9.83618 3.49484 10.1352 3.07038 10.261 2.58334H12.9167V11.3667H11.3667V12.9167H2.58334V10.261C3.07038 10.1352 3.49484 9.83618 3.77715 9.41987C4.05946 9.00355 4.18025 8.49856 4.11687 7.99955C4.05348 7.50055 3.81029 7.04179 3.43286 6.70927C3.05543 6.37675 2.56968 6.1933 2.06667 6.1933C1.56366 6.1933 1.07791 6.37675 0.700485 6.70927C0.323057 7.04179 0.0798588 7.50055 0.016477 7.99955C-0.0469048 8.49856 0.073881 9.00355 0.356194 9.41987C0.638507 9.83618 1.06296 10.1352 1.55 10.261V13.4333C1.55 13.5704 1.60444 13.7018 1.70133 13.7987C1.79823 13.8956 1.92964 13.95 2.06667 13.95H11.3667V14.9833H6.2V16.0167H11.3667V17.05H2.06667C1.92964 17.05 1.79823 17.1044 1.70133 17.2013C1.60444 17.2982 1.55 17.4296 1.55 17.5667V20.739C1.06296 20.8648 0.638507 21.1638 0.356194 21.5801C0.073881 21.9965 -0.0469048 22.5014 0.016477 23.0005C0.0798588 23.4995 0.323057 23.9582 0.700485 24.2907C1.07791 24.6233 1.56366 24.8067 2.06667 24.8067C2.56968 24.8067 3.05543 24.6233 3.43286 24.2907C3.81029 23.9582 4.05348 23.4995 4.11687 23.0005C4.18025 22.5014 4.05946 21.9965 3.77715 21.5801C3.49484 21.1638 3.07038 20.8648 2.58334 20.739V18.0833H11.3667V19.6333H12.9167V28.4167H10.261C10.1352 27.9296 9.83618 27.5052 9.41987 27.2229C9.00355 26.9405 8.49856 26.8198 7.99955 26.8831C7.50055 26.9465 7.04179 27.1897 6.70927 27.5671C6.37675 27.9446 6.1933 28.4303 6.1933 28.9333C6.1933 29.4363 6.37675 29.9221 6.70927 30.2995C7.04179 30.6769 7.50055 30.9201 7.99955 30.9835C8.49856 31.0469 9.00355 30.9261 9.41987 30.6438C9.83618 30.3615 10.1352 29.937 10.261 29.45H13.4333C13.5704 29.45 13.7018 29.3956 13.7987 29.2987C13.8956 29.2018 13.95 29.0704 13.95 28.9333V19.6333H14.9833V24.8H16.0167V19.6333H17.05V28.9333C17.05 29.0704 17.1044 29.2018 17.2013 29.2987C17.2982 29.3956 17.4296 29.45 17.5667 29.45H20.739C20.8648 29.937 21.1638 30.3615 21.5801 30.6438C21.9965 30.9261 22.5014 31.0469 23.0005 30.9835C23.4995 30.9201 23.9582 30.6769 24.2907 30.2995C24.6233 29.9221 24.8067 29.4363 24.8067 28.9333C24.8067 28.4303 24.6233 27.9446 24.2907 27.5671C23.9582 27.1897 23.4995 26.9465 23.0005 26.8831C22.5014 26.8198 21.9965 26.9405 21.5801 27.2229C21.1638 27.5052 20.8648 27.9296 20.739 28.4167H18.0833V19.6333H19.6333V18.0833H28.4167V20.739C27.9296 20.8648 27.5052 21.1638 27.2229 21.5801C26.9405 21.9965 26.8198 22.5014 26.8831 23.0005C26.9465 23.4995 27.1897 23.9582 27.5671 24.2907C27.9446 24.6233 28.4303 24.8067 28.9333 24.8067C29.4363 24.8067 29.9221 24.6233 30.2995 24.2907C30.6769 23.9582 30.9201 23.4995 30.9835 23.0005C31.0469 22.5014 30.9261 21.9965 30.6438 21.5801C30.3615 21.1638 29.937 20.8648 29.45 20.739V17.5667C29.45 17.4296 29.3956 17.2982 29.2987 17.2013C29.2018 17.1044 29.0704 17.05 28.9333 17.05H19.6333V16.0167H24.8V14.9833H19.6333V13.95H28.9333ZM16.0167 18.0833H12.9167V17.05H16.0167V18.0833ZM14.4667 16.0167C14.1601 16.0167 13.8604 15.9258 13.6055 15.7554C13.3506 15.5851 13.152 15.3431 13.0347 15.0598C12.9173 14.7766 12.8866 14.4649 12.9465 14.1643C13.0063 13.8636 13.1539 13.5874 13.3707 13.3707C13.5874 13.1539 13.8636 13.0063 14.1643 12.9465C14.4649 12.8866 14.7766 12.9173 15.0598 13.0347C15.3431 13.152 15.5851 13.3506 15.7554 13.6055C15.9258 13.8604 16.0167 14.1601 16.0167 14.4667C16.0167 14.8778 15.8534 15.272 15.5627 15.5627C15.272 15.8534 14.8778 16.0167 14.4667 16.0167ZM18.0833 16.0167H17.05V12.9167H18.0833V16.0167Z" fill="#6E69E6"/>
</svg>
