<svg width="24" height="24" viewBox="0 0 24 24" fill="none" xmlns="http://www.w3.org/2000/svg">
<path d="M21.2 12.0575C21.1997 10.2229 20.6738 8.42689 19.6845 6.88196C18.6951 5.33703 17.2839 4.10793 15.6177 3.34015C13.9515 2.57238 12.1003 2.29808 10.2831 2.54975C8.46588 2.80141 6.75884 3.56848 5.36404 4.76017C3.96925 5.95185 2.94511 7.51823 2.41288 9.27387C1.88065 11.0295 1.86261 12.9009 2.3609 14.6665C2.85918 16.4321 3.85293 18.0179 5.22449 19.2362C6.59605 20.4546 8.28799 21.2544 10.1 21.5411L10.1 14.8325H7.6628V12.0575H10.1V9.94248C10.1 7.53648 11.5334 6.20748 13.7258 6.20748C14.4458 6.21746 15.1641 6.28003 15.875 6.39468V8.75748H14.6642C14.4579 8.73008 14.248 8.74945 14.0502 8.81418C13.8524 8.8789 13.6717 8.98731 13.5214 9.13137C13.3712 9.27544 13.2553 9.45146 13.1824 9.64639C13.1094 9.84133 13.0813 10.0502 13.1 10.2575V12.0575H15.7628L15.3368 14.8325H13.1L13.1 21.5411C15.3583 21.1838 17.4149 20.0323 18.8998 18.2938C20.3847 16.5553 21.2004 14.3438 21.2 12.0575Z" fill="white"/>
</svg>
