<svg width="21" height="20" viewBox="0 0 21 20" fill="none" xmlns="http://www.w3.org/2000/svg">
<path d="M15.54 3.46C15.3027 3.46 15.0707 3.53038 14.8733 3.66224C14.676 3.79409 14.5222 3.98151 14.4313 4.20078C14.3405 4.42005 14.3168 4.66133 14.3631 4.89411C14.4094 5.12689 14.5236 5.34071 14.6915 5.50853C14.8593 5.67635 15.0731 5.79064 15.3059 5.83694C15.5387 5.88324 15.7799 5.85948 15.9992 5.76866C16.2185 5.67783 16.4059 5.52402 16.5378 5.32668C16.6696 5.12935 16.74 4.89734 16.74 4.66C16.74 4.34174 16.6136 4.03652 16.3885 3.81147C16.1635 3.58643 15.8583 3.46 15.54 3.46ZM20.14 5.88C20.1206 5.0503 19.9652 4.2294 19.68 3.45C19.4257 2.78313 19.03 2.17928 18.52 1.68C18.0248 1.16743 17.4196 0.774176 16.75 0.53C15.9727 0.236161 15.1508 0.07721 14.32 0.0599999C13.26 -5.58794e-08 12.92 0 10.2 0C7.48 0 7.14 -5.58794e-08 6.08 0.0599999C5.24915 0.07721 4.42734 0.236161 3.65 0.53C2.98167 0.776649 2.37693 1.16956 1.88 1.68C1.36742 2.17518 0.974173 2.78044 0.729997 3.45C0.436158 4.22734 0.277207 5.04915 0.259997 5.88C0.199997 6.94 0.199997 7.28 0.199997 10C0.199997 12.72 0.199997 13.06 0.259997 14.12C0.277207 14.9508 0.436158 15.7727 0.729997 16.55C0.974173 17.2196 1.36742 17.8248 1.88 18.32C2.37693 18.8304 2.98167 19.2234 3.65 19.47C4.42734 19.7638 5.24915 19.9228 6.08 19.94C7.14 20 7.48 20 10.2 20C12.92 20 13.26 20 14.32 19.94C15.1508 19.9228 15.9727 19.7638 16.75 19.47C17.4196 19.2258 18.0248 18.8326 18.52 18.32C19.0322 17.8226 19.4283 17.2182 19.68 16.55C19.9652 15.7706 20.1206 14.9497 20.14 14.12C20.14 13.06 20.2 12.72 20.2 10C20.2 7.28 20.2 6.94 20.14 5.88ZM18.34 14C18.3327 14.6348 18.2178 15.2637 18 15.86C17.8403 16.2952 17.5839 16.6884 17.25 17.01C16.9256 17.3405 16.5332 17.5964 16.1 17.76C15.5037 17.9778 14.8748 18.0927 14.24 18.1C13.24 18.15 12.87 18.16 10.24 18.16C7.61 18.16 7.24 18.16 6.24 18.1C5.58089 18.1123 4.92459 18.0109 4.3 17.8C3.88578 17.6281 3.51135 17.3728 3.2 17.05C2.86809 16.7287 2.61484 16.3352 2.46 15.9C2.21585 15.2952 2.08044 14.6519 2.06 14C2.06 13 2 12.63 2 10C2 7.37 2 7 2.06 6C2.06448 5.35106 2.18295 4.70795 2.41 4.1C2.58604 3.67791 2.85626 3.30166 3.2 3C3.50381 2.65617 3.87928 2.3831 4.3 2.2C4.90955 1.98004 5.55199 1.86508 6.2 1.86C7.2 1.86 7.57 1.8 10.2 1.8C12.83 1.8 13.2 1.8 14.2 1.86C14.8348 1.86728 15.4637 1.98225 16.06 2.2C16.5144 2.36865 16.9223 2.64285 17.25 3C17.5777 3.30718 17.8338 3.68273 18 4.1C18.2222 4.70893 18.3373 5.35178 18.34 6C18.39 7 18.4 7.37 18.4 10C18.4 12.63 18.39 13 18.34 14ZM10.2 4.87C9.18581 4.87198 8.19496 5.17453 7.35265 5.73942C6.51034 6.30431 5.85438 7.1062 5.46763 8.04375C5.08089 8.98131 4.98072 10.0125 5.17979 11.0069C5.37886 12.0014 5.86823 12.9145 6.58607 13.631C7.30391 14.3474 8.21801 14.835 9.21286 15.0321C10.2077 15.2293 11.2387 15.1271 12.1755 14.7385C13.1123 14.35 13.9129 13.6924 14.4761 12.849C15.0394 12.0056 15.34 11.0142 15.34 10C15.3413 9.3251 15.2092 8.65661 14.9512 8.03296C14.6933 7.40931 14.3146 6.84281 13.8369 6.36605C13.3592 5.88929 12.7919 5.51168 12.1678 5.25493C11.5436 4.99818 10.8749 4.86736 10.2 4.87ZM10.2 13.33C9.54139 13.33 8.89756 13.1347 8.34995 12.7688C7.80233 12.4029 7.37552 11.8828 7.12348 11.2743C6.87144 10.6659 6.80549 9.99631 6.93398 9.35035C7.06247 8.70439 7.37962 8.11104 7.84533 7.64533C8.31104 7.17963 8.90439 6.86247 9.55035 6.73398C10.1963 6.6055 10.8659 6.67144 11.4743 6.92348C12.0828 7.17552 12.6029 7.60234 12.9688 8.14995C13.3347 8.69757 13.53 9.34139 13.53 10C13.53 10.4373 13.4439 10.8703 13.2765 11.2743C13.1092 11.6784 12.8639 12.0454 12.5547 12.3547C12.2454 12.6639 11.8783 12.9092 11.4743 13.0765C11.0703 13.2439 10.6373 13.33 10.2 13.33Z" fill="white"/>
</svg>
