<svg width="52" height="52" viewBox="0 0 52 52" fill="none" xmlns="http://www.w3.org/2000/svg">
<rect width="52" height="52" rx="26" fill="#F2F2FD"/>
<path d="M26.4545 28.4077C31.0455 28.4077 34.7273 24.4969 34.7273 19.7277C34.7273 14.9585 31.0455 11 26.4545 11C21.8636 11 18.1818 14.9108 18.1818 19.68C18.1818 24.4492 21.8636 28.4077 26.4545 28.4077ZM26.4545 13.2892C29.8182 13.2892 32.5455 16.1508 32.5455 19.68C32.5455 23.2092 29.8182 26.0708 26.4545 26.0708C23.0909 26.0708 20.3636 23.2569 20.3636 19.7277C20.3636 16.1985 23.0909 13.2892 26.4545 13.2892ZM12.0909 42H40.9091C41.5 42 42 41.4754 42 40.8554C42 34.8462 37.3182 29.9338 31.5909 29.9338H21.4091C15.6818 29.9338 11 34.8462 11 40.8554C11 41.4754 11.5 42 12.0909 42ZM21.4091 32.2231H31.5909C35.7727 32.2231 39.1818 35.4662 39.7273 39.7108H13.2727C13.8182 35.4662 17.2273 32.2231 21.4091 32.2231Z" fill="#6E69E6"/>
</svg>
