<svg width="25" height="24" viewBox="0 0 25 24" fill="none" xmlns="http://www.w3.org/2000/svg">
<path d="M20 3L4.4 3C4.08174 3 3.77651 3.12643 3.55147 3.35147C3.32643 3.57652 3.2 3.88174 3.2 4.2L3.2 19.8C3.2 20.1183 3.32643 20.4235 3.55147 20.6485C3.77651 20.8736 4.08174 21 4.4 21L20 21C20.3183 21 20.6235 20.8736 20.8485 20.6485C21.0736 20.4235 21.2 20.1183 21.2 19.8L21.2 4.2C21.2 3.88174 21.0736 3.57652 20.8485 3.35147C20.6235 3.12643 20.3183 3 20 3ZM8.5322 18.3564H5.8244L5.8244 9.75H8.5322L8.5322 18.3564ZM7.178 8.5686C6.8667 8.56765 6.56266 8.47447 6.30429 8.30083C6.04591 8.1272 5.84479 7.88088 5.72631 7.59301C5.60784 7.30513 5.57734 6.9886 5.63865 6.6834C5.69996 6.3782 5.85034 6.09801 6.0708 5.87822C6.29126 5.65843 6.5719 5.5089 6.87729 5.44852C7.18268 5.38814 7.49911 5.41961 7.78663 5.53895C8.07414 5.6583 8.31984 5.86018 8.49269 6.11908C8.66554 6.37798 8.7578 6.6823 8.7578 6.9936C8.75788 7.20086 8.71703 7.40609 8.63761 7.59753C8.55819 7.78897 8.44175 7.96284 8.29497 8.10917C8.14819 8.2555 7.97397 8.37141 7.78229 8.45025C7.59061 8.52909 7.38525 8.56931 7.178 8.5686ZM18.5726 18.3564H15.92V14.1936C15.92 13.1814 15.92 11.9436 14.51 11.9436C13.1 11.9436 12.9302 13.0128 12.9302 14.1372V18.4128H10.28L10.28 9.75L12.7616 9.75V10.9314H12.818C13.0739 10.4889 13.4453 10.1243 13.8925 9.87657C14.3396 9.62885 14.8457 9.50732 15.3566 9.525C18.0644 9.525 18.572 11.325 18.572 13.6314L18.5726 18.3564Z" fill="white"/>
</svg>
