<svg width="52" height="52" viewBox="0 0 52 52" fill="none" xmlns="http://www.w3.org/2000/svg">
<rect width="52" height="52" rx="26" fill="#F2F2FD"/>
<path d="M30.8035 26.0005C30.8035 28.6514 28.6545 30.8005 26.0035 30.8005C23.3525 30.8005 21.2035 28.6514 21.2035 26.0005C21.2035 23.3495 23.3525 21.2005 26.0035 21.2005C28.6545 21.2005 30.8035 23.3495 30.8035 26.0005ZM35.6035 26.0005C35.6064 23.6387 34.7358 21.3593 33.1591 19.6009C32.9321 19.339 32.5815 19.2198 32.2418 19.2891C31.9022 19.3583 31.6263 19.6053 31.52 19.9352C31.4137 20.2651 31.4935 20.6267 31.7287 20.8813C34.336 23.7965 34.336 28.2056 31.7287 31.1209C31.3853 31.517 31.4232 32.1153 31.8138 32.465C32.2044 32.8146 32.8033 32.7863 33.1591 32.4013C34.7355 30.6422 35.6061 28.3625 35.6035 26.0005ZM20.2783 20.8813C20.5136 20.6267 20.5933 20.2651 20.487 19.9352C20.3807 19.6053 20.1048 19.3583 19.7652 19.2891C19.4255 19.2198 19.0749 19.339 18.8479 19.6009C15.5849 23.2438 15.5849 28.7583 18.8479 32.4013C19.2037 32.7863 19.8026 32.8146 20.1932 32.465C20.5838 32.1153 20.6217 31.517 20.2783 31.1209C17.6682 28.2066 17.6682 23.7955 20.2783 20.8813ZM39.2719 20.4013C38.5693 18.7327 37.5571 17.2123 36.2887 15.9205C36.0507 15.666 35.6936 15.5605 35.3555 15.6447C35.0174 15.7289 34.7515 15.9897 34.6607 16.3261C34.57 16.6624 34.6685 17.0216 34.9183 17.2645C39.6782 22.114 39.6782 29.8821 34.9183 34.7317C34.5458 35.1101 34.5507 35.7188 34.9291 36.0913C35.3075 36.4637 35.9162 36.4589 36.2887 36.0805C40.3524 31.9306 41.5284 25.7472 39.2719 20.3953V20.4013ZM14.5039 30.8581C12.5424 26.2213 13.5621 20.8599 17.0887 17.2669C17.4605 16.8884 17.4551 16.2803 17.0767 15.9085C16.6983 15.5367 16.0901 15.542 15.7183 15.9205C10.2215 21.5164 10.2215 30.4845 15.7183 36.0805C15.9563 36.3349 16.3134 36.4405 16.6515 36.3562C16.9896 36.272 17.2555 36.0112 17.3463 35.6749C17.437 35.3385 17.3385 34.9794 17.0887 34.7365C15.9903 33.6182 15.1133 32.3022 14.5039 30.8581Z" fill="#636AE8"/>
</svg>
