<svg width="52" height="52" viewBox="0 0 52 52" fill="none" xmlns="http://www.w3.org/2000/svg">
<rect width="52" height="52" rx="26" fill="#F2F2FD"/>
<path d="M32.1998 11H12V42H40V18.2926L32.1998 11ZM32.6316 13.3519L37.4841 17.8889H32.6316V13.3519ZM13.4737 40.6222V12.3778H31.1579V19.2667H38.5263V40.6222H13.4737ZM24.1579 23.4H34.4737V24.7778H24.1579V23.4ZM24.1579 28.2222H34.4737V29.6H24.1579V28.2222ZM24.1579 33.0444H34.4737V34.4222H24.1579V33.0444ZM21.5053 26.6378L22.3895 27.74L18.9307 30.1652L17.005 28.3648L18.0469 27.3907L19.0685 28.3459L21.5053 26.6378ZM21.5053 31.46L22.3895 32.5622L18.9307 34.9875L17.005 33.187L18.0469 32.213L19.0685 33.1681L21.5053 31.46Z" fill="#636AE8"/>
</svg>
