<svg width="52" height="52" viewBox="0 0 52 52" fill="none" xmlns="http://www.w3.org/2000/svg">
<rect width="52" height="52" rx="26" fill="#F2F2FD"/>
<path d="M37.4585 15.5415L35.2653 17.7347C37.5128 19.9745 38.9 23.0745 38.9 26.5C38.9 33.351 33.351 38.9 26.5 38.9C19.649 38.9 14.1 33.351 14.1 26.5C14.1 20.176 18.8352 14.968 24.95 14.2085V17.3395C20.5557 18.0757 17.2 21.8965 17.2 26.5C17.2 31.6383 21.3617 35.8 26.5 35.8C31.6383 35.8 35.8 31.6383 35.8 26.5C35.8 23.9347 34.7615 21.6097 33.0798 19.9202L30.8865 22.1135C32.0479 23.2779 32.7001 24.8554 32.7 26.5C32.7 29.9255 29.9255 32.7 26.5 32.7C23.0745 32.7 20.3 29.9255 20.3 26.5C20.3 23.617 22.284 21.2067 24.95 20.517V23.8262C24.0278 24.361 23.4 25.353 23.4 26.5C23.4 28.2127 24.7872 29.6 26.5 29.6C28.2127 29.6 29.6 28.2127 29.6 26.5C29.6 25.353 28.9722 24.3687 28.05 23.8262V11H26.5C17.9362 11 11 17.9362 11 26.5C11 35.056 17.9362 42 26.5 42C35.056 42 42 35.056 42 26.5C42 22.222 40.264 18.347 37.4585 15.5415Z" fill="#6E69E6"/>
</svg>
