<svg width="52" height="52" viewBox="0 0 52 52" fill="none" xmlns="http://www.w3.org/2000/svg">
<rect width="52" height="52" rx="26" fill="#F2F2FD"/>
<path d="M26.2711 22.2022C26.9897 22.203 27.6927 21.7772 28.0326 21.1457C28.3245 20.5796 27.4904 20.1311 27.1793 20.6864C26.84 21.3511 25.8306 21.4127 25.4135 20.7963C25.0446 20.2824 24.2587 20.8405 24.6245 21.3584C24.9958 21.8794 25.6321 22.2022 26.2711 22.2022Z" fill="#6E69E6"/>
<path d="M36.4123 24.3232C36.2394 24.0708 35.9914 23.8742 35.6929 23.7715C34.422 22.8729 32.8646 22.1774 31.1388 21.7276C32.1356 20.892 32.3976 19.522 31.8181 18.4106C32.3393 17.1221 32.5266 15.8977 32.3665 14.7695C32.0444 11.7948 28.7491 9.80689 26.3449 11.7142C23.3713 11.443 19.1735 11.9262 20.4109 15.9567C20.6087 16.6872 20.8924 17.4951 20.7486 18.1682C20.7278 18.269 20.7481 18.3651 20.7859 18.453C20.2066 19.5978 20.5395 20.9856 21.571 21.8055C19.9576 22.2564 18.5 22.925 17.3058 23.7719C17.0039 23.876 16.7536 24.0762 16.5807 24.3332C13.2082 27.0939 13.079 31.3334 16.3282 34.2048V36.2232C16.3114 37.0377 17.0592 37.7358 17.871 37.6667C17.6402 38.4364 17.8738 39.3594 18.4421 39.8995C18.5939 40.0469 18.8231 40.0778 19.0074 39.979C21.3889 38.6757 24.0797 38.6989 26.4999 39.6793C28.9235 38.6951 31.6152 38.6787 33.9927 39.979C34.177 40.0778 34.4062 40.0469 34.558 39.8995C35.126 39.3594 35.3602 38.4364 35.1292 37.6668C35.9432 37.7379 36.6874 37.0368 36.6719 36.2231C36.6719 36.2232 36.6719 34.2048 36.6719 34.2048C39.9245 31.3286 39.7913 27.0884 36.4123 24.3232ZM16.3282 32.823C14.4704 30.7266 14.4677 28.0286 16.3282 25.9358V32.823ZM23.0049 12.8521C24.1633 12.5898 25.2252 12.5439 26.4466 12.7024C26.597 12.7211 26.7484 12.67 26.8543 12.5617C27.5379 11.8666 28.7687 11.7365 29.7161 12.2589C31.2649 13.1048 31.7697 15.2626 31.2667 16.9996C31.0796 15.1341 29.6771 13.5628 27.7123 13.9304C26.4883 14.2455 25.2794 13.8872 24.0559 13.8971C22.8211 14.0204 21.7295 15.054 21.512 16.3004C20.8616 14.3981 21.0544 13.2057 23.0049 12.8521ZM21.469 19.6868C21.4699 19.3507 21.5593 19.0198 21.7272 18.7301C22.1492 18.0045 22.3313 17.1762 22.4689 16.457C22.6202 15.6312 23.3485 14.94 24.16 14.8603C25.4071 14.927 26.646 15.1846 27.8931 14.882C28.7777 14.7024 29.6918 15.2207 30.0411 16.0755C30.2991 16.8962 30.3621 17.7605 30.8303 18.5927C31.6118 19.7889 30.8615 21.067 29.6763 21.5493C28.9867 21.7962 28.1901 22.1219 27.5109 22.6638C26.8241 23.2129 25.8009 23.2118 25.1141 22.664C23.8806 21.578 21.6138 21.6331 21.469 19.6868ZM25.5313 23.9361C26.1607 24.1282 26.8746 24.0726 27.4688 23.8014C27.6535 25.3234 25.4943 25.4601 25.5313 23.9361ZM17.2969 29.3875C17.6025 29.3875 17.7898 29.4008 17.9341 29.5148C18.1471 29.6711 18.2628 30.0214 18.032 30.1652C17.4864 30.623 17.623 31.2273 18.1096 31.6306C18.5968 32.1883 17.8804 32.7818 17.2969 32.7701V29.3875ZM18.9165 38.9388C18.6938 38.5478 18.6984 38.0069 18.9209 37.6194C20.1889 37.5993 21.4627 37.7355 22.6431 38.0062C21.3728 38.0592 20.1063 38.3664 18.9165 38.9388ZM26.0157 38.2085C24.169 37.2076 21.7088 36.6447 19.2056 36.6447C18.7455 36.6482 18.285 36.6637 17.8262 36.7024C17.6848 36.7132 17.5533 36.6693 17.4511 36.5751C17.3518 36.4838 17.2969 36.3589 17.2969 36.2232V33.7387C18.8667 33.7398 19.9266 32.0103 18.7089 30.8582C19.8043 29.8092 18.6088 28.2425 17.2969 28.4194V25.1469C17.2829 24.8952 17.5693 24.8122 17.7304 24.6611C20.7454 24.1385 23.9724 25.2951 26.0157 27.6222V38.2085ZM19.5588 23.5777C20.5252 23.1185 21.6019 22.7577 22.7495 22.5092C23.3544 22.7254 24.0169 23.0254 24.5625 23.4566C24.5261 24.1505 24.5838 24.9222 25.1307 25.4212C26.3003 26.6424 28.4711 25.7432 28.4375 24.0518C28.4375 24.0518 28.4375 23.198 28.4375 23.198C28.9379 22.8728 29.4988 22.642 30.0032 22.4613C31.2467 22.7083 32.4058 23.0856 33.4416 23.5779C30.8511 23.6797 28.3054 24.8125 26.5 26.7202C24.6944 24.8128 22.1481 23.6796 19.5588 23.5777ZM34.0835 38.9388C32.8948 38.3663 31.6291 38.059 30.3597 38.0057C31.5395 37.7353 32.8124 37.5993 34.0792 37.6194C34.3017 38.0069 34.3063 38.5478 34.0835 38.9388ZM34.9681 30.1652C34.7374 30.0215 34.8529 29.6711 35.066 29.5148C35.2103 29.4008 35.3976 29.3875 35.7022 29.3875C35.7032 29.3875 35.7032 32.7701 35.7032 32.7701C35.1187 32.7812 34.4038 32.1884 34.8905 31.6301C35.3792 31.22 35.5151 30.6301 34.9681 30.1652ZM35.7032 28.4194C34.3911 28.2435 33.1958 29.8086 34.2912 30.8582C33.0732 32.0095 34.134 33.7409 35.7032 33.7387V36.2232C35.7032 36.3589 35.6483 36.4838 35.549 36.5751C35.1983 36.8434 34.6877 36.6151 34.2778 36.6576C31.612 36.5799 28.9495 37.143 26.9844 38.2085V27.6222C29.0282 25.294 32.2574 24.1371 35.2722 24.6615C35.4361 24.8088 35.7169 24.893 35.7032 25.1469V28.4194ZM36.6719 32.823V25.9358C38.5323 28.03 38.5298 30.7261 36.6719 32.823Z" fill="#6E69E6"/>
<path d="M33.281 18.2394C33.5487 18.2394 33.7654 18.0225 33.7654 17.755C33.753 17.1422 34.3684 16.6569 34.9678 16.813C35.8635 17.0128 35.9196 18.2475 35.201 18.6043C34.6055 18.9326 34.2497 19.5047 34.2497 20.1348C34.2292 20.4166 34.449 20.6422 34.7341 20.6402C35.0018 20.6402 35.2185 20.4023 35.2185 20.1348C35.2185 19.8631 35.3869 19.6079 35.6683 19.4527C36.4342 19.031 36.8168 18.1685 36.621 17.3064C36.3535 15.9501 34.5667 15.3539 33.526 16.2402C33.0081 16.5795 32.2913 18.1162 33.281 18.2394ZM34.7341 22.1144C35.3705 22.1021 35.3703 21.1577 34.7341 21.1457C34.0978 21.1578 34.0979 22.1022 34.7341 22.1144ZM16.3279 13.3957C16.5956 13.3957 16.8122 13.1788 16.8122 12.9113C16.7999 12.2986 17.4153 11.8129 18.0147 11.9693C18.9103 12.1691 18.9665 13.4037 18.2478 13.7606C17.6523 14.0889 17.2966 14.661 17.2966 15.2911C17.276 15.5729 17.4959 15.7985 17.781 15.7965C18.0487 15.7965 18.2654 15.5586 18.2654 15.2911C18.2654 15.0193 18.4338 14.7641 18.7152 14.609C19.481 14.1873 19.8637 13.3247 19.6679 12.4626C19.4 11.1061 17.6144 10.5108 16.5729 11.3965C16.0549 11.7357 15.3381 13.2724 16.3279 13.3957ZM17.781 17.2707C18.4173 17.2583 18.4172 16.314 17.781 16.3019C17.1447 16.3141 17.1448 17.2584 17.781 17.2707ZM28.3546 30.7563C27.9698 30.766 27.7275 30.2911 27.9644 29.9855C28.6952 28.9893 29.6606 28.2079 30.7571 27.7259C31.4024 27.4444 32.0941 27.2553 32.8062 27.1902C33.4069 27.1888 33.4574 28.0903 32.8601 28.1561C31.3072 28.2141 29.357 29.5536 28.7458 30.5584C28.655 30.6823 28.5088 30.7563 28.3546 30.7563ZM28.3546 34.6313C27.9698 34.641 27.7275 34.1661 27.9644 33.8605C28.6952 32.8643 29.6606 32.0829 30.7571 31.6009C31.4022 31.3197 32.0933 31.1303 32.8053 31.0654C33.4068 31.0637 33.4578 31.965 32.8601 32.0311C31.3072 32.0891 29.357 33.4286 28.7458 34.4334C28.655 34.5573 28.5088 34.6313 28.3546 34.6313ZM24.8717 30.7563C24.7175 30.7563 24.5714 30.6823 24.4805 30.5584C23.8688 29.5531 21.9194 28.2146 20.3661 28.1562C19.7713 28.0915 19.8174 27.1881 20.4201 27.1902C21.132 27.2552 21.8238 27.4444 22.4692 27.7259C23.5657 28.2079 24.5312 28.9893 25.262 29.9858C25.498 30.2905 25.2573 30.7667 24.8717 30.7563ZM24.8717 34.6313C24.7175 34.6313 24.5714 34.5573 24.4805 34.4333C23.8688 33.4281 21.9194 32.0896 20.3661 32.0312C19.7709 31.9662 19.8175 31.0629 20.4211 31.0654C21.1324 31.1299 21.8239 31.3197 22.4692 31.6009C23.5657 32.0829 24.5312 32.8643 25.262 33.8608C25.498 34.1655 25.2573 34.6417 24.8717 34.6313Z" fill="#6E69E6"/>
</svg>
