<svg width="20" height="16" viewBox="0 0 20 16" fill="none" xmlns="http://www.w3.org/2000/svg">
<path d="M19.6 2.0602C18.88 2.3602 18.16 2.6002 17.32 2.6602C18.16 2.1802 18.76 1.4002 19.06 0.500195C18.28 0.980195 17.44 1.2802 16.54 1.4602C15.82 0.680195 14.8 0.200195 13.72 0.200195C11.56 0.200195 9.76 1.9402 9.76 4.1602C9.76 4.4602 9.82 4.7602 9.88 5.0602C6.58 4.8802 3.7 3.3202 1.72 0.920195C1.36 1.5202 1.18 2.1802 1.18 2.9002C1.18 4.2802 1.9 5.4802 2.92 6.2002C2.26 6.2002 1.66 6.0202 1.12 5.7202V5.7802C1.12 7.7002 2.5 9.2602 4.3 9.6202C3.94 9.6802 3.64 9.7402 3.28 9.7402C3.04 9.7402 2.8 9.7402 2.56 9.68019C3.04 11.2402 4.54 12.3802 6.22 12.4402C4.9 13.5202 3.16 14.1202 1.3 14.1202C0.999996 14.1202 0.639996 14.1202 0.339996 14.0602C2.14 15.1402 4.24 15.8002 6.46 15.8002C13.72 15.8002 17.68 9.8002 17.68 4.5802C17.68 4.4002 17.68 4.2202 17.68 4.1002C18.4 3.5002 19.06 2.8402 19.6 2.0602Z" fill="white"/>
</svg>
