<svg width="21" height="20" viewBox="0 0 21 20" fill="none" xmlns="http://www.w3.org/2000/svg">
<path d="M9.49 13.29C9.447 13.3375 9.40692 13.3876 9.37 13.44C9.33216 13.4957 9.30189 13.5563 9.28 13.62C9.25117 13.6767 9.23095 13.7374 9.22 13.8C9.21509 13.8666 9.21509 13.9334 9.22 14C9.21662 14.1312 9.24402 14.2613 9.3 14.38C9.34491 14.5041 9.41657 14.6168 9.50989 14.7101C9.60321 14.8034 9.71591 14.8751 9.84 14.92C9.9597 14.9729 10.0891 15.0002 10.22 15.0002C10.3509 15.0002 10.4803 14.9729 10.6 14.92C10.7241 14.8751 10.8368 14.8034 10.9301 14.7101C11.0234 14.6168 11.0951 14.5041 11.14 14.38C11.1844 14.2584 11.2048 14.1294 11.2 14C11.2008 13.8684 11.1755 13.7379 11.1258 13.6161C11.076 13.4943 11.0027 13.3834 10.91 13.29C10.817 13.1963 10.7064 13.1219 10.5846 13.0711C10.4627 13.0203 10.332 12.9942 10.2 12.9942C10.068 12.9942 9.93728 13.0203 9.81542 13.0711C9.69357 13.1219 9.58296 13.1963 9.49 13.29ZM10.2 0C8.22219 0 6.28879 0.58649 4.6443 1.6853C2.99981 2.78412 1.71808 4.3459 0.961206 6.17317C0.20433 8.00043 0.00629644 10.0111 0.392149 11.9509C0.778001 13.8907 1.73041 15.6725 3.12893 17.0711C4.52746 18.4696 6.30929 19.422 8.2491 19.8079C10.1889 20.1937 12.1996 19.9957 14.0268 19.2388C15.8541 18.4819 17.4159 17.2002 18.5147 15.5557C19.6135 13.9112 20.2 11.9778 20.2 10C20.2 8.68678 19.9413 7.38642 19.4388 6.17317C18.9363 4.95991 18.1997 3.85752 17.2711 2.92893C16.3425 2.00035 15.2401 1.26375 14.0268 0.761205C12.8136 0.258658 11.5132 0 10.2 0ZM10.2 18C8.61775 18 7.07103 17.5308 5.75544 16.6518C4.43985 15.7727 3.41447 14.5233 2.80897 13.0615C2.20346 11.5997 2.04504 9.99113 2.35372 8.43928C2.6624 6.88743 3.42433 5.46197 4.54315 4.34315C5.66197 3.22433 7.08743 2.4624 8.63928 2.15372C10.1911 1.84504 11.7997 2.00346 13.2615 2.60896C14.7233 3.21447 15.9727 4.23984 16.8518 5.55544C17.7308 6.87103 18.2 8.41775 18.2 10C18.2 12.1217 17.3571 14.1566 15.8569 15.6569C14.3566 17.1571 12.3217 18 10.2 18ZM10.2 5C9.67307 4.99966 9.15534 5.13812 8.69891 5.40144C8.24249 5.66476 7.86347 6.04366 7.6 6.5C7.52765 6.61382 7.47906 6.7411 7.45718 6.87418C7.43529 7.00726 7.44054 7.14339 7.47263 7.27439C7.50472 7.40538 7.56297 7.52854 7.64389 7.63643C7.7248 7.74433 7.82671 7.83475 7.94347 7.90224C8.06024 7.96974 8.18945 8.01292 8.32333 8.02918C8.45722 8.04544 8.59301 8.03445 8.72254 7.99688C8.85207 7.9593 8.97266 7.89591 9.07705 7.81052C9.18144 7.72513 9.26749 7.6195 9.33 7.5C9.41811 7.3474 9.54497 7.22078 9.69775 7.13298C9.85053 7.04518 10.0238 6.9993 10.2 7C10.4652 7 10.7196 7.10536 10.9071 7.29289C11.0946 7.48043 11.2 7.73478 11.2 8C11.2 8.26522 11.0946 8.51957 10.9071 8.70711C10.7196 8.89464 10.4652 9 10.2 9C9.93478 9 9.68043 9.10536 9.4929 9.29289C9.30536 9.48043 9.2 9.73478 9.2 10V11C9.2 11.2652 9.30536 11.5196 9.4929 11.7071C9.68043 11.8946 9.93478 12 10.2 12C10.4652 12 10.7196 11.8946 10.9071 11.7071C11.0946 11.5196 11.2 11.2652 11.2 11V10.82C11.8614 10.58 12.4174 10.1152 12.7708 9.50687C13.1242 8.89851 13.2525 8.18529 13.1334 7.49189C13.0143 6.79849 12.6552 6.16902 12.119 5.71352C11.5828 5.25801 10.9035 5.00546 10.2 5Z" fill="white"/>
</svg>
