<svg width="20" height="14" viewBox="0 0 20 14" fill="none" xmlns="http://www.w3.org/2000/svg">
<path d="M19.42 3.16022C19.42 3.16022 19.24 1.84022 18.64 1.24022C17.92 0.460215 17.08 0.460215 16.72 0.400215C14.02 0.220215 9.99999 0.220215 9.99999 0.220215C9.99999 0.220215 5.97999 0.220215 3.27999 0.400215C2.91999 0.460215 2.07999 0.460215 1.35999 1.24022C0.759994 1.84022 0.579994 3.16022 0.579994 3.16022C0.579994 3.16022 0.399994 4.72022 0.399994 6.28022L0.399994 7.72022C0.399994 9.28022 0.579994 10.8402 0.579994 10.8402C0.579994 10.8402 0.759994 12.1602 1.35999 12.7602C2.07999 13.5402 3.03999 13.4802 3.45999 13.6002C5.01999 13.7202 9.99999 13.7802 9.99999 13.7802C9.99999 13.7802 14.02 13.7802 16.72 13.6002C17.08 13.5402 17.92 13.5402 18.64 12.7602C19.24 12.1602 19.42 10.8402 19.42 10.8402C19.42 10.8402 19.6 9.28022 19.6 7.72022L19.6 6.28022C19.6 4.72022 19.42 3.16022 19.42 3.16022ZM8.01999 9.52022L8.01999 4.12021L13.18 6.82022L8.01999 9.52022Z" fill="white"/>
</svg>
